<svg id="visual" viewBox="0 0 900 600" width="900" height="600" xmlns="http://www.w3.org/2000/svg" xmlns:xlink="http://www.w3.org/1999/xlink" version="1.1"><rect x="0" y="0" width="900" height="600" fill="#715DF2"></rect><path d="M0 146L25 157.5C50 169 100 192 150 206.5C200 221 250 227 300 218.5C350 210 400 187 450 195C500 203 550 242 600 258.3C650 274.7 700 268.3 750 258.8C800 249.3 850 236.7 875 230.3L900 224L900 0L875 0C850 0 800 0 750 0C700 0 650 0 600 0C550 0 500 0 450 0C400 0 350 0 300 0C250 0 200 0 150 0C100 0 50 0 25 0L0 0Z" fill="#f5f4f2"></path><path d="M0 156L25 159.2C50 162.3 100 168.7 150 169.2C200 169.7 250 164.3 300 152.7C350 141 400 123 450 122.3C500 121.7 550 138.3 600 132.5C650 126.7 700 98.3 750 91.2C800 84 850 98 875 105L900 112L900 0L875 0C850 0 800 0 750 0C700 0 650 0 600 0C550 0 500 0 450 0C400 0 350 0 300 0C250 0 200 0 150 0C100 0 50 0 25 0L0 0Z" fill="#ffffff"></path></svg>