<svg id="visual" viewBox="0 0 1200 600" width="1200" height="600" xmlns="http://www.w3.org/2000/svg" xmlns:xlink="http://www.w3.org/1999/xlink" version="1.1"><rect x="0" y="0" width="1200" height="600" fill="#0C2D48"></rect><path d="M0 338L33.3 347.7C66.7 357.3 133.3 376.7 200 391.3C266.7 406 333.3 416 400 397.8C466.7 379.7 533.3 333.3 600 319.2C666.7 305 733.3 323 800 345.7C866.7 368.3 933.3 395.7 1000 391.3C1066.7 387 1133.3 351 1166.7 333L1200 315L1200 601L1166.7 601C1133.3 601 1066.7 601 1000 601C933.3 601 866.7 601 800 601C733.3 601 666.7 601 600 601C533.3 601 466.7 601 400 601C333.3 601 266.7 601 200 601C133.3 601 66.7 601 33.3 601L0 601Z" fill="#FFf" stroke-linecap="round" stroke-linejoin="miter"></path></svg>